<?xml version="1.0" encoding="UTF-8" standalone="no"?>
<!-- Created with Inkscape (http://www.inkscape.org/) -->

<svg
   width="6007.5996mm"
   height="4210.4614mm"
   viewBox="0 0 6007.5996 4210.4614"
   version="1.1"
   id="svg1276"
   xml:space="preserve"
   inkscape:version="1.2.2 (732a01da63, 2022-12-09)"
   sodipodi:docname="background.svg"
   xmlns:inkscape="http://www.inkscape.org/namespaces/inkscape"
   xmlns:sodipodi="http://sodipodi.sourceforge.net/DTD/sodipodi-0.dtd"
   xmlns:xlink="http://www.w3.org/1999/xlink"
   xmlns="http://www.w3.org/2000/svg"
   xmlns:svg="http://www.w3.org/2000/svg"><sodipodi:namedview
     id="namedview1278"
     pagecolor="#ffffff"
     bordercolor="#000000"
     borderopacity="0.25"
     inkscape:showpageshadow="2"
     inkscape:pageopacity="0.0"
     inkscape:pagecheckerboard="0"
     inkscape:deskcolor="#d1d1d1"
     inkscape:document-units="mm"
     showgrid="false"
     inkscape:zoom="0.047159529"
     inkscape:cx="10687.13"
     inkscape:cy="8100.1656"
     inkscape:window-width="1920"
     inkscape:window-height="1027"
     inkscape:window-x="-8"
     inkscape:window-y="-8"
     inkscape:window-maximized="1"
     inkscape:current-layer="layer1" /><defs
     id="defs1273" /><g
     inkscape:label="Шар 1"
     inkscape:groupmode="layer"
     id="layer1"
     transform="translate(3956.0938,2422.0509)"><path
       style="display:none;fill:#000000;stroke:#77b53b;stroke-width:0.260902;stroke-dasharray:none;stroke-opacity:1"
       d="m 98.589712,263.71608 c -4.620596,-0.48043 -9.129916,-1.82808 -13.129906,-3.92398 -2.620036,-1.37284 -3.18853,-1.982 -2.914208,-3.1227 0.471713,-1.96149 4.385154,-11.30006 6.591607,-15.72943 0.681847,-1.36878 1.064128,-2.3101 0.849514,-2.09182 -1.609291,1.63678 -9.221999,11.42247 -11.148526,14.33078 -1.42852,2.1565 -1.838655,2.25999 -5.107786,1.2888 -3.361134,-0.99851 -4.835254,-1.57799 -7.815668,-3.07234 -10.864365,-5.44727 -17.148499,-14.05553 -18.241559,-24.988 -0.306534,-3.06587 -0.303888,-3.09798 0.437531,-5.3099 0.529701,-1.58029 0.797358,-3.0307 0.92334,-5.0035 0.169077,-2.64765 0.240131,-2.9041 1.512849,-5.4602 3.183112,-6.39289 8.012963,-11.60028 13.718819,-14.79118 2.030111,-1.1353 5.900747,-2.54529 8.332724,-3.03543 1.570767,-0.31657 1.883709,-0.50114 3.611467,-2.12996 6.9861,-6.58607 17.249825,-10.10088 28.27082,-9.68134 4.57369,0.17411 7.95017,0.65055 12.28202,1.73308 1.6851,0.42111 3.7761,0.84972 4.64666,0.95247 2.4888,0.29376 4.32052,1.10535 5.70677,2.52857 1.14706,1.17764 1.41435,1.30762 4.24332,2.06352 10.59711,2.83153 18.59909,6.99297 24.1769,12.57324 3.11769,3.11905 5.12695,6.47129 6.39588,10.67084 0.61775,2.04442 0.70485,2.79392 0.71631,6.16389 0.014,4.11209 -0.35032,6.67071 -1.06174,7.45681 -0.24325,0.26879 -0.90107,0.56207 -1.46183,0.65174 -0.56076,0.0897 -1.06766,0.24086 -1.12644,0.33598 -0.0588,0.0951 0.0851,0.86273 0.31976,1.7058 0.52337,1.88033 0.31379,2.84658 -1.38524,6.38657 -2.11363,4.40382 -5.764,8.60742 -9.66737,11.1325 -2.4864,1.60844 -5.01191,2.67665 -8.36697,3.53895 -0.96524,0.24808 -1.17729,0.4506 -1.79602,1.71522 -1.49654,3.05882 -5.44885,5.70038 -10.73555,7.17519 -1.38245,0.38566 -3.88276,1.27729 -5.55625,1.98141 -7.57265,3.18616 -16.30616,4.67342 -23.221228,3.95442 z m 11.711848,-1.15326 c 4.19791,-0.81188 8.00151,-1.98392 11.90625,-3.66879 1.16417,-0.50233 3.24776,-1.23454 4.63021,-1.62714 3.85946,-1.09604 7.24309,-2.84775 9.0318,-4.67575 0.86722,-0.88629 1.63261,-1.95538 1.82048,-2.54287 0.17828,-0.55751 0.40073,-1.09867 0.49434,-1.20258 0.0936,-0.10391 1.22821,-0.49553 2.52137,-0.87027 5.67931,-1.6458 9.77517,-4.33325 13.28303,-8.71552 1.75505,-2.19253 3.93308,-6.12941 4.7043,-8.50323 0.41322,-1.2719 0.40992,-1.43113 -0.0611,-2.94454 -0.597,-1.91817 -0.42854,-2.34628 1.01951,-2.59093 0.58489,-0.0988 1.22666,-0.34289 1.42616,-0.5424 0.96327,-0.96326 1.291,-8.435 0.51889,-11.82972 -1.6728,-7.35473 -7.21432,-13.73978 -15.97335,-18.40483 -4.52944,-2.41237 -9.521,-4.30054 -15.11275,-5.71674 -2.38527,-0.60411 -2.63441,-0.73343 -3.96875,-2.05999 -1.53361,-1.52469 -2.5938,-1.98197 -5.39246,-2.32589 -0.87313,-0.10729 -2.77812,-0.49839 -4.23333,-0.86911 -5.75483,-1.46604 -12.00049,-2.208 -16.13958,-1.9173 -10.147192,0.71267 -18.40267,4.08423 -24.755414,10.1102 -1.294879,1.22828 -1.692987,1.44384 -3.307291,1.79078 -6.109107,1.31297 -10.649978,3.81446 -14.98443,8.2547 -3.044236,3.11852 -4.824806,5.64743 -6.836712,9.71002 -1.024445,2.06864 -1.150863,2.52007 -1.095844,3.91323 0.06223,1.57571 -0.725362,5.5532 -1.319038,6.66142 -0.41248,0.76997 -0.324708,4.27097 0.174227,6.94951 1.077334,5.78367 3.618846,10.65463 7.734036,14.82275 2.526196,2.55869 5.004786,4.43924 8.145159,6.17987 3.856077,2.13732 9.33678,4.20722 11.425753,4.31517 l 1.227113,0.0634 2.006635,-2.79055 c 2.824488,-3.92791 6.687801,-8.86546 9.687988,-12.38185 3.24829,-3.80718 3.744788,-3.68458 1.655276,0.40876 -2.808568,5.50197 -7.353872,16.37766 -7.35058,17.58797 0.0019,0.67751 0.466889,1.00556 3.702494,2.6118 2.441366,1.21196 6.352397,2.46965 8.995833,2.89283 1.091407,0.17473 2.162969,0.35973 2.38125,0.41113 1.043752,0.24575 10.129175,-0.13428 12.038535,-0.50355 z m -12.303118,-1.39649 c -2.395344,-0.35975 -4.102941,-0.745 -5.953125,-1.34307 -2.428078,-0.78486 -6.746875,-2.86339 -6.746875,-3.2471 0,-0.29966 1.62311,-4.56142 3.129246,-8.21638 1.909159,-4.63299 5.84223,-12.19199 8.380875,-16.10727 1.232093,-1.90023 4.453527,-5.84702 5.045707,-6.18184 0.20406,-0.11537 0.4998,-0.4504 0.6572,-0.74451 0.3268,-0.61062 -0.0666,-1.29467 -0.74446,-1.29467 -0.71184,0 -9.011681,7.99359 -12.362396,11.90625 -0.685414,0.80036 -1.633204,1.87192 -2.106197,2.38125 -1.267388,1.36473 -5.776992,7.06169 -8.585993,10.84665 -2.807023,3.78228 -2.398118,3.62262 -6.113981,2.38725 -5.552919,-1.84611 -10.877918,-5.0397 -14.507463,-8.70064 -1.634594,-1.64872 -2.169571,-2.35634 -2.069825,-2.73777 0.0971,-0.37129 0.02757,-0.47334 -0.249962,-0.36684 -0.673766,0.25855 -3.2263,-4.21185 -4.290428,-7.51407 -1.207036,-3.7457 -1.785866,-9.145 -1.041176,-9.71204 0.623916,-0.47508 10.391366,-2.53972 16.073437,-3.39759 8.596683,-1.29792 11.617878,-1.70302 12.567708,-1.68516 1.57489,0.0296 0.996884,0.15116 -4.233333,0.89026 -7.667217,1.08348 -15.600692,2.48057 -20.505208,3.61098 -1.81901,0.41925 -3.413687,0.76369 -3.543727,0.76541 -0.132811,0.002 -0.173051,1.19173 -0.09181,2.71512 0.135951,2.54938 0.676787,5.1328 1.646627,7.86549 0.497037,1.40048 2.384697,4.96699 2.979808,5.62998 0.390521,0.43507 0.467654,0.37594 1.207972,-0.92604 1.18235,-2.07937 2.781712,-4.05304 5.246377,-6.47422 4.50767,-4.42813 9.797872,-7.6238 15.97038,-9.64728 3.622112,-1.1874 9.110909,-2.25966 11.850841,-2.31509 1.320797,-0.0267 2.507951,-0.11441 2.638121,-0.19486 0.130167,-0.0804 1.804966,-0.0544 3.721772,0.0578 2.212583,0.12957 3.24358,0.27521 2.823641,0.39886 -0.651457,0.19183 -0.649793,0.19518 0.110244,0.22115 1.416131,0.0484 0.515062,0.30712 -1.993882,0.5725 -1.365093,0.14439 -4.029799,0.50269 -5.92157,0.79624 -8.938506,1.38696 -16.995367,4.29083 -23.321951,8.40574 -1.330927,0.86566 -2.640615,1.76646 -2.910417,2.0018 -0.269801,0.23533 -1.323986,1.12133 -2.342631,1.96891 -2.396202,1.99377 -5.953125,5.78066 -5.953125,6.338 0,0.59879 3.967929,4.42477 6.217708,5.99527 3.228663,2.25382 9.057741,4.93927 12.304953,5.66887 l 1.006628,0.22617 3.698134,-4.9272 c 5.925786,-7.89523 11.761944,-14.51323 17.806172,-20.19161 3.247392,-3.05082 4.387172,-3.74579 5.130932,-3.12852 0.8247,0.68444 0.46275,1.58294 -1.47238,3.65506 -4.490629,4.80852 -9.277296,13.54317 -14.166238,25.85036 -0.635878,1.60072 -1.156369,2.99838 -1.156649,3.1059 -7.94e-4,0.33061 3.981262,2.20471 6.217197,2.92598 4.053475,1.30757 6.271244,1.63096 10.98021,1.60111 3.62208,-0.023 4.9499,-0.14793 7.79621,-0.73372 4.30814,-0.88664 8.67565,-2.33307 11.95683,-3.95984 0.70473,-0.34939 1.81711,-0.72166 2.47195,-0.82727 2.94102,-0.47427 7.39623,-2.54783 8.90007,-4.14228 1.00875,-1.06954 1.68326,-2.3548 1.68326,-3.2074 0,-0.89672 0.68579,-1.37405 2.51355,-1.74951 6.19679,-1.27297 11.23726,-4.49967 14.77942,-9.46119 1.30942,-1.83412 3.34575,-6.18194 3.33952,-7.13031 -0.003,-0.41973 -0.27939,-1.65611 -0.61474,-2.74752 -0.55822,-1.81673 -0.68632,-2.01066 -1.51634,-2.2956 -0.49864,-0.17117 -2.75208,-0.98787 -5.00766,-1.81487 -5.3082,-1.94626 -12.4817,-4.17416 -16.22343,-5.03857 -3.7527,-0.86694 -3.68535,-0.8435 -3.55203,-1.23599 0.20634,-0.60746 7.25776,-0.40266 10.50472,0.3051 4.93325,1.07532 10.51272,3.33703 14.43012,5.84943 l 1.5875,1.01813 1.57749,-0.32087 c 1.54501,-0.31427 1.58218,-0.34248 1.80504,-1.37038 0.12515,-0.57723 0.17752,-2.65685 0.11637,-4.62138 -0.0979,-3.14642 -0.20872,-3.84998 -0.93006,-5.90671 -0.45038,-1.28417 -1.37942,-3.2487 -2.06452,-4.36563 -1.77777,-2.8983 -5.89614,-6.8576 -9.39504,-9.03215 -5.02356,-3.12212 -12.95797,-6.28229 -18.88755,-7.52266 -1.01701,-0.21274 -1.86849,-0.36561 -1.89218,-0.33972 -0.0237,0.0259 -0.99501,1.47583 -2.15847,3.22208 -2.2986,3.44999 -3.5553,5.25867 -7.4454,10.71562 -1.40045,1.96454 -2.74951,3.86954 -2.99792,4.23334 -0.2484,0.3638 -0.93045,1.3163 -1.51565,2.11667 -0.58521,0.80036 -1.65629,2.3102 -2.38017,3.3552 -0.72389,1.04499 -1.45553,1.98612 -1.62587,2.0914 -0.1934,0.11952 -0.23881,0.0767 -0.12092,-0.11406 0.10383,-0.168 0.0743,-0.30546 -0.0655,-0.30546 -0.45239,0 0.40353,-2.25382 2.17987,-5.74004 3.44113,-6.75354 7.97932,-12.91177 13.85206,-18.79699 0.76399,-0.76561 1.38906,-1.50197 1.38906,-1.63636 0,-0.53861 -1.38274,-1.83893 -2.37966,-2.23782 -0.5823,-0.23299 -1.69766,-0.49871 -2.47859,-0.59049 l -1.41987,-0.16688 -0.98911,2.08272 c -2.40313,5.06014 -6.12843,14.01574 -9.0034,21.64409 -1.89588,5.03048 -2.41776,5.54768 -2.15553,2.1362 0.5957,-7.7498 4.4986,-17.46053 9.86664,-24.54893 0.75673,-0.99926 1.04189,-1.56708 0.82361,-1.64003 -3.15696,-1.05505 -9.22027,-2.00408 -13.82763,-2.16429 -3.88605,-0.13514 -4.941616,-0.0789 -7.759698,0.41299 -4.20212,0.73356 -7.432034,1.7792 -10.879844,3.5222 -2.598671,1.31373 -3.518601,2.05904 -2.541434,2.05904 0.661594,0 6.224201,2.95813 7.973055,4.23997 5.062905,3.71093 9.465491,9.4714 11.605451,15.18489 0.95636,2.5534 1.84492,6.33903 1.42732,6.08094 -0.12194,-0.0754 -0.22617,0.0784 -0.23162,0.34161 -0.005,0.26325 -0.64011,-0.77152 -1.41037,-2.29949 -2.872487,-5.69816 -5.910168,-9.97912 -10.201463,-14.37678 -2.849163,-2.91978 -5.956115,-5.53946 -8.978318,-7.57022 -1.554919,-1.04482 -1.732534,-1.10359 -2.34496,-0.77583 -0.810984,0.43403 -3.961717,3.31341 -3.7779,3.45253 0.07276,0.0551 0.965729,0.49914 1.984375,0.98682 9.336717,4.46998 17.680016,12.0118 20.902165,18.89424 0.867871,1.85376 0.09963,1.69712 -1.879682,-0.38324 -4.486355,-4.71541 -7.137305,-7.04569 -16.412443,-14.42709 l -5.327459,-4.23974 -3.006916,0.63287 c -8.282321,1.7432 -15.056577,7.01231 -19.35919,15.05784 l -1.175707,2.19848 0.826338,-0.42732 c 0.454486,-0.23502 1.719376,-0.71122 2.810866,-1.05822 9.092029,-2.89045 20.043049,-2.3993 28.839736,1.29347 2.105792,0.88399 2.740239,1.26869 2.103437,1.27541 -0.326673,0.003 -0.32471,0.0439 0.01323,0.27262 0.305435,0.20669 0.244472,0.23886 -0.264584,0.13964 -7.272639,-1.41754 -12.042983,-1.87217 -19.579166,-1.86596 -5.815116,0.005 -7.258429,0.0908 -10.451041,0.62273 -2.037292,0.33943 -3.894455,0.7184 -4.127029,0.84214 -0.311807,0.16591 -0.466602,0.80146 -0.589414,2.41999 -0.0916,1.20725 -0.332182,2.80172 -0.53462,3.54328 l -0.368068,1.34828 0.98817,-0.47743 c 3.350744,-1.6189 8.126915,-3.04466 12.833044,-3.83087 3.135502,-0.52382 12.355126,-0.64829 14.022916,-0.18932 0.823791,0.2267 -0.114377,0.2604 -4.233333,0.15207 -4.172039,-0.10974 -5.963443,-0.0432 -8.466667,0.31446 -4.980423,0.71161 -9.423849,1.96064 -13.332573,3.74775 -1.07552,0.49174 -2.071666,0.89407 -2.213657,0.89407 -0.148419,0 -0.182462,-0.30931 -0.08008,-0.72761 0.631881,-2.58168 0.923725,-4.35965 0.932212,-5.67923 0.0075,-1.16366 0.116408,-1.56852 0.472746,-1.75718 0.585477,-0.30997 3.947259,-0.96728 7.209895,-1.4097 3.265763,-0.44286 13.626003,-0.43609 17.065625,0.0111 4.147005,0.53921 8.139594,1.1087 8.863541,1.26427 1.95852,0.42086 -2.024808,-1.19212 -5.291666,-2.14277 -5.645145,-1.64273 -13.766617,-1.9068 -19.711458,-0.64093 -1.854592,0.39491 -5.629793,1.55751 -6.453846,1.9875 -0.8179,0.4268 -1.615945,0.47227 -1.615945,0.0921 0,-0.50361 1.792503,-3.81687 3.12059,-5.76808 3.678254,-5.40407 8.717688,-9.30041 14.474201,-11.19102 0.780998,-0.25651 5.505526,-1.29315 6.151562,-1.34976 0.181901,-0.0159 0.330729,-0.21592 0.330729,-0.4444 0,-0.4779 2.911568,-3.22273 4.119399,-3.88348 0.805312,-0.44055 0.82524,-0.43571 2.381249,0.57892 4.088202,2.66577 8.135578,6.20375 11.464041,10.02117 3.398687,3.89796 5.747178,7.3818 8.267638,12.26457 1.16642,2.25965 1.12365,1.73757 -0.1842,-2.24806 -2.986705,-9.10189 -9.487505,-16.13656 -18.554304,-20.07806 -1.135393,-0.49357 -2.101191,-1.00793 -2.146221,-1.14301 -0.113831,-0.3415 1.032174,-1.10852 3.51594,-2.35322 7.692514,-3.85498 16.893195,-4.90697 26.855205,-3.0706 3.22409,0.59432 6.115,1.3433 6.44025,1.66855 0.15409,0.15409 1.06002,0.28133 2.01318,0.28275 2.19577,0.003 4.25356,0.88786 5.0382,2.16579 0.29527,0.48088 0.50583,1.00997 0.46792,1.17575 -0.0379,0.16578 -1.25051,1.53499 -2.69467,3.04271 -4.04846,4.22663 -7.94213,9.26543 -10.45307,13.52731 -1.67325,2.84005 -4.11781,7.82431 -3.92973,8.01239 0.0757,0.0757 1.30476,-1.50354 2.73116,-3.50952 1.4264,-2.00597 3.02201,-4.24253 3.5458,-4.97014 0.52378,-0.7276 1.272,-1.79916 1.6627,-2.38125 0.39069,-0.58208 1.18414,-1.71317 1.76321,-2.51354 2.80618,-3.87859 6.64421,-9.52737 6.64421,-9.7789 0,-0.10066 0.26789,-0.42658 0.59531,-0.72426 0.56995,-0.51818 0.67286,-0.52514 2.41525,-0.16345 6.65981,1.38246 14.95464,4.77099 20.14048,8.22761 4.84069,3.22656 8.79954,7.90124 10.41522,12.29847 1.13101,3.07816 1.43615,5.11072 1.27873,8.5175 -0.081,1.75261 -0.22192,3.42712 -0.31317,3.72112 -0.12691,0.40885 -0.60263,0.6329 -2.02301,0.95277 l -1.85709,0.41822 -1.58138,-1.0221 c -5.58823,-3.61185 -14.0537,-6.46394 -19.54534,-6.58501 -4.34062,-0.0957 -4.34447,-0.0313 -0.064,1.07081 4.72789,1.21733 20.31808,6.40807 20.853,6.94299 0.22066,0.22065 1.43601,4.53162 1.4312,5.07659 -0.008,0.95885 -1.7025,4.71158 -3.05462,6.76676 -3.2971,5.01151 -8.30364,8.56513 -13.86127,9.83868 -2.98331,0.68364 -3.52791,0.97063 -3.73158,1.96648 -0.67234,3.28737 -4.13843,5.7675 -10.33298,7.39369 -1.2529,0.32891 -2.86024,0.89029 -3.57187,1.24752 -3.10665,1.55949 -8.70028,3.26358 -13.20013,4.02139 -2.17059,0.36554 -9.365562,0.51354 -11.244784,0.2313 z M 63.210735,232.46468 c 1.312437,-1.073 2.622125,-2.0946 2.910416,-2.27023 5.888994,-3.5876 8.743861,-4.97842 13.453047,-6.55398 4.427135,-1.4812 10.437,-2.76923 14.924386,-3.19858 1.058257,-0.10126 1.998504,-0.30449 2.089444,-0.45163 0.241268,-0.39038 -8.245504,-0.0514 -11.111696,0.44382 -4.993915,0.86286 -10.489792,2.68437 -14.200806,4.70661 -5.895883,3.21283 -11.10927,7.86785 -13.870065,12.38455 -0.642958,1.05188 -0.486159,0.94008 1.345632,-0.95952 1.140365,-1.18257 3.147204,-3.02804 4.459642,-4.10104 z m 34.451466,-12.5618 c -0.08792,-0.0879 -0.316124,-0.0973 -0.507118,-0.0209 -0.211067,0.0845 -0.148373,0.14715 0.159853,0.15985 0.278913,0.0115 0.435184,-0.0511 0.347265,-0.13897 z m 0.692844,-7.36827 c -3.52284,-5.88384 -8.940237,-10.86399 -16.690438,-15.34333 -2.068269,-1.19538 -5.457306,-2.78237 -4.965123,-2.32503 0.383982,0.3568 6.57456,5.3024 8.168751,6.52595 4.88792,3.75148 13.464143,11.59278 14.385814,13.15304 0.240003,0.40629 0.480102,0.69498 0.533553,0.64153 0.05345,-0.0534 -0.591201,-1.24692 -1.432557,-2.65216 z m 12.547685,-7.95 c 2.49125,-6.31765 5.03516,-12.34203 6.70354,-15.87501 0.48103,-1.01864 0.9276,-1.97114 0.99238,-2.11666 0.3187,-0.71599 -2.0692,2.37919 -3.29676,4.27323 -3.75817,5.7986 -6.83445,13.89148 -7.62844,20.06844 -0.0935,0.7276 -0.22551,1.6801 -0.29329,2.11667 -0.0763,0.49122 0.0944,0.23912 0.44767,-0.66146 0.314,-0.80037 1.6977,-4.31271 3.0749,-7.80521 z m 21.18497,39.47934 c -5.00211,-7.12747 -13.09463,-14.10211 -24.93164,-21.48767 -0.24759,-0.15448 -0.33896,-0.39655 -0.21957,-0.58171 0.41754,-0.64754 6.91826,2.04031 11.17028,4.61859 1.98696,1.20481 6.05867,4.3789 8.09621,6.31138 1.27476,1.20902 3.63229,4.1809 4.80404,6.0559 1.25877,2.01427 3.08051,6.47783 2.49653,6.11691 -0.14868,-0.0919 -0.31027,-0.0516 -0.35908,0.0894 -0.0488,0.14108 -0.52435,-0.36419 -1.05677,-1.12283 z m 0.39197,-1.04861 c -2.89508,-7.13173 -9.86442,-13.87866 -18.87335,-18.27102 -2.45234,-1.19565 -6.16934,-2.59468 -5.20144,-1.95775 7.81896,5.14532 9.72104,6.51208 13.55216,9.73808 3.99941,3.36772 8.85869,8.57237 10.41211,11.15215 0.3286,0.5457 0.63893,0.99219 0.68962,0.99219 0.0507,0 -0.2099,-0.74414 -0.5791,-1.65365 z m 7.8521,-11.74385 c -1.41821,-1.0544 -5.98483,-3.74041 -7.70226,-4.53033 -5.00245,-2.30086 -13.80174,-4.87123 -21.5342,-6.29038 -3.25455,-0.59732 -3.17852,-0.56706 -2.743,-1.09183 0.31683,-0.38175 0.8756,-0.41328 4.72616,-0.2667 9.03008,0.34375 16.44366,2.46769 22.61819,6.47995 1.82967,1.18894 5.62158,4.74459 6.18746,5.80194 0.49112,0.91766 -0.24552,0.86894 -1.55235,-0.10265 z m -0.27223,-1.30683 c -1.6706,-1.69752 -4.79595,-4.34567 -5.12877,-4.34567 -0.0916,0 -0.63,-0.30667 -1.19638,-0.68149 -1.42569,-0.94347 -5.54841,-2.69021 -8.08804,-3.42677 -4.32654,-1.25482 -7.52222,-1.76214 -11.77291,-1.86898 l -4.10104,-0.10307 3.96875,0.89344 c 13.03133,2.93359 20.96659,6.01465 26.59062,10.32446 0.65484,0.50182 1.24672,0.92037 1.31527,0.93011 0.0686,0.01 -0.64581,-0.76517 -1.5875,-1.72203 z"
       id="path1469" /><path
       style="display:inline;fill:#77b53b;fill-opacity:1;stroke:#77b53b;stroke-width:1.0181;stroke-linecap:round;stroke-dasharray:none;stroke-opacity:1"
       d="m 386.06538,685.26315 c -10.21242,0.3569 -20.46066,1.54884 -30.51051,3.65824 -17.83761,3.74401 -35.05023,10.3783 -50.32836,20.36372 -8.45779,5.30794 -15.554,12.38019 -23.35541,18.52735 -5.81714,2.86443 -12.48492,3.56244 -18.59972,5.68906 -25.65618,7.39132 -46.73582,26.00375 -61.49116,47.77807 -5.1252,7.87644 -10.02225,16.04596 -13.36221,24.85383 -1.60954,6.85068 -0.95995,14.09557 -2.64926,20.90893 -0.61309,5.13276 -3.07362,9.78469 -3.98283,14.81752 -1.92178,31.09233 11.35744,62.40104 34.26335,83.36461 17.25417,16.48804 39.105,27.46259 61.72467,34.53818 4.7658,1.24077 9.93998,2.80277 14.7807,1.60244 15.61748,-21.72321 31.60452,-43.28557 49.61707,-63.09367 1.21946,-1.23004 2.45505,-2.57809 3.7979,-3.53525 -4.49664,11.30292 -10.35755,22.02869 -15.17411,33.20465 -6.03768,13.75845 -12.31047,27.50868 -16.70936,41.89411 -1.10196,2.77448 0.64717,5.50181 3.14113,6.72725 17.59108,10.65444 37.78178,16.69468 58.16372,18.84126 13.71165,-0.29048 27.49651,-0.47331 41.10611,-2.32542 17.82675,-2.91013 34.77275,-9.40215 51.48501,-16.00538 13.94098,-5.08641 28.87424,-8.53474 40.97461,-17.58489 6.36989,-4.5427 11.4769,-10.93414 13.83494,-18.45196 13.27321,-4.48996 27.10014,-8.27886 38.66733,-16.54905 15.47709,-10.52979 27.15048,-25.84626 34.99886,-42.71103 2.0489,-4.85018 4.94484,-9.69896 5.19564,-15.05799 -0.38722,-4.42086 -3.10381,-8.8326 -1.95386,-13.26428 3.13662,-2.18738 8.30115,-1.24169 10.39161,-5.09926 3.6141,-8.67197 2.26804,-18.37779 2.60809,-27.53158 0.19196,-8.58391 -0.47241,-17.30014 -3.7859,-25.31965 -8.44378,-24.13124 -27.51469,-42.99645 -49.05906,-55.95249 -21.29008,-13.06564 -45.03951,-21.4372 -69.08146,-27.814 -3.9979,-0.99364 -7.8817,-2.52437 -10.74907,-5.60662 -4.55227,-4.57835 -10.1178,-8.38409 -16.65299,-9.27119 -19.84662,-3.21837 -39.22668,-9.10454 -59.33585,-10.8434 -5.96916,-0.5869 -11.97151,-0.87088 -17.96962,-0.75211 z m 2.15886,8.62261 c 19.07207,-0.009 38.14957,3.12152 56.48806,8.34806 1.69429,0.63143 4.01712,1.62198 5.35825,1.86051 -15.56128,31.93212 -28.33501,65.19411 -41.26443,98.22838 -0.98087,2.17815 -2.01694,5.0114 -3.3028,6.70627 -0.27951,-11.99725 2.34321,-23.84235 5.4946,-35.35709 7.01267,-23.99378 18.74375,-46.43476 33.48193,-66.5429 1.09538,-1.29848 2.6087,-4.23684 0.0165,-4.85124 -20.83871,-5.91048 -42.6277,-8.22084 -64.25135,-8.12294 -3.51867,0.12837 -2.28629,0.0446 0.47218,-0.0854 2.52349,-0.1201 5.00361,-0.17469 7.50708,-0.18366 z m -20.25334,1.26474 c -17.90926,2.66949 -35.53254,8.0049 -51.26012,17.11142 -1.97172,1.389 -4.78481,2.19558 -5.94543,4.43596 -0.28628,1.49658 -2.06364,-0.82367 -0.0705,-1.34254 8.88578,-5.99705 18.85308,-10.38104 28.89844,-13.84573 9.2,-3.05151 28.72417,-6.1857 38.41151,-7.3668 z m 91.52576,9.82055 c 5.68497,0.75083 13.42777,5.29227 16.04834,10.74966 -2.8964,-7.84223 -19.13175,-12.01409 -25.23381,-11.60908 z m 15.9942,11.07706 c -9.66272,11.34113 -20.34429,21.93919 -29.53957,33.74309 -14.08934,17.37878 -25.78222,36.72246 -34.45461,57.34249 -5.22698,13.33895 1.92687,3.61432 3.23691,0.19218 16.50738,-21.3243 31.11056,-44.02757 46.6859,-66.02998 4.78481,-6.73703 10.0028,-13.26728 14.63978,-20.08624 0.82492,-0.99764 2.80282,-3.9511 1.59613,-2.26799 -23.39291,33.54001 -43.94497,62.61606 -65.61969,92.65434 -0.8239,0.8864 -2.02258,3.05329 -2.72717,3.14996 0.19718,-6.71587 4.185,-12.58556 6.85555,-18.60575 11.99251,-24.59486 28.28085,-46.93309 47.03361,-66.83048 3.92959,-4.29607 8.04896,-8.42945 11.82826,-12.85712 0.33584,-0.70362 -0.18942,-1.82893 0.4649,-0.4045 z m 3.09323,2.27508 c 15.39926,2.07991 30.15151,7.28542 44.63532,12.89235 21.30012,8.76349 42.5223,19.53481 58.17187,36.85583 13.48544,14.30661 22.99709,33.36061 22.89162,53.33962 -0.15983,6.9766 0.0659,14.12659 -1.39578,20.9837 -0.4188,0.799 -1.69493,1.26606 -2.26409,1.38097 3.95059,-1.9616 2.63084,-7.28101 3.08351,-10.81797 -0.10211,-8.79433 0.65827,-17.77196 -1.24405,-26.42251 -3.72557,-13.3849 -9.88196,-26.38989 -19.77014,-36.34729 -11.12223,-11.89212 -24.11093,-22.18567 -38.93078,-29.07729 -19.13625,-9.81559 -39.51507,-17.28037 -60.51475,-21.93356 -1.87619,-0.33373 -6.71338,-3.63795 -8.30439,-3.17956 0.38973,-0.26446 3.14179,2.25211 3.64166,2.32571 z m -163.8735,0.91699 c 10.41439,4.40821 20.4723,10.07384 29.75176,16.68606 17.8987,13.83801 32.10048,32.50636 40.78854,53.36006 2.30247,5.81725 4.58102,14.83527 5.94761,20.93146 -4.6304,-17.02335 -12.26652,-36.57571 -23.27223,-50.48151 -12.09544,-15.6807 -27.93922,-28.42306 -45.9123,-36.76112 -2.65939,-1.32411 -5.32993,-2.62589 -7.97602,-3.97655 l -3.3075,-2.65297 z m -7.96003,-0.0961 c 4.41771,1.08002 7.79823,4.44285 11.58333,6.79649 26.60194,19.16694 48.98703,44.07496 64.69335,72.88007 2.35854,3.69754 3.81776,8.10467 6.69602,11.40078 1.79755,6.6014 1.48763,-1.09496 1.75802,1.16499 0.48261,0.77899 -0.2056,3.44697 -0.96274,1.89529 -8.43858,-15.61469 -16.85465,-31.38346 -28.11404,-45.20472 -14.37959,-17.78988 -31.42992,-33.49912 -50.44991,-46.21565 -2.31513,-1.49381 -5.47545,-3.67601 -8.03004,-1.34726 -5.02698,3.32249 -9.71227,8.31088 -13.70905,11.99771 4.6027,-4.83287 9.23596,-10.05395 15.24194,-13.14623 0.41361,-0.14772 0.85226,-0.23892 1.29312,-0.22147 z m -17.31935,14.61414 c 2.07545,2.38896 5.80721,3.09126 8.52006,4.82889 27.80644,13.70499 53.36387,33.09825 71.2377,58.65738 3.138,4.98535 6.68929,10.01727 8.18425,15.77273 -5.97738,-4.47995 -11.06583,-10.28369 -16.54094,-15.42322 -19.6116,-19.81712 -42.1353,-36.37586 -63.69025,-53.95921 -3.15068,-2.26083 -5.95238,-5.21097 -9.33431,-7.05057 -8.43585,0.98302 -16.73758,3.25987 -24.82716,5.82798 -24.67367,8.39585 -45.20262,26.76455 -58.07575,49.22968 -1.94655,3.35526 -4.5537,8.49418 -6.33405,11.94099 8.41058,-17.56127 21.12784,-35.57357 36.9394,-47.21387 11.28202,-8.54651 24.34879,-14.60945 38.26059,-17.29281 4.55697,-1.32586 9.4612,-1.62404 13.90153,-3.28815 0.95301,-0.58738 1.34988,-1.67342 1.96759,-2.54688 l -0.17535,0.43451 z M 259.1807,792.8133 c 23.7937,-0.002 47.93919,4.70299 69.37988,15.35451 -0.39491,1.71994 -1.69194,0.99509 -3.20305,0.78063 -21.01655,-4.09112 -42.39394,-6.30021 -63.81453,-6.44431 -17.46243,-0.14708 -44.93772,2.16066 -62.12297,5.6774 19.08164,-3.92823 48.50405,-6.23318 67.87774,-6.00186 18.44162,0.29053 36.67627,3.26893 54.91162,5.81334 12.40488,2.36335 2.45227,-2.39687 -0.24343,-2.70795 -14.53805,-5.80743 -29.76814,-10.21727 -45.44065,-11.39473 -21.42356,-1.92384 -43.40869,-0.62235 -63.86788,6.41413 -4.87264,1.13971 -9.33834,4.15213 -14.39141,4.35738 0.28485,-2.30681 0.21686,-0.04 1.61067,-0.14002 15.9369,-6.67474 32.7656,-10.48344 50.0051,-11.42116 3.11381,-0.18026 6.19367,-0.27755 9.29891,-0.28736 z m -59.39735,15.04427 c -3.16299,1.0805 -2.67743,5.33984 -3.27718,7.97834 -0.54071,6.66093 -1.69318,13.2189 -3.26803,19.64293 0.7521,2.31657 3.58883,0.12993 4.96889,-0.34383 15.01732,-7.06186 31.30219,-11.19114 47.63402,-14.12425 6.63897,-1.25056 77.52218,-5.43778 38.4081,3.32559 -0.83145,0.0956 12.34549,-2.76623 11.77664,-4.26008 -0.44706,-1.17399 -14.60207,-1.05515 -15.39493,-1.02391 -9.10195,0.35865 -21.89839,-0.19406 -34.86772,2.00039 -19.84113,3.35718 -40.29591,11.0537 -50.79788,15.76154 -1.60212,0.96145 -2.75467,1.02577 -2.0886,-1.04626 1.51786,-7.88936 2.94741,-15.80472 3.55312,-23.84532 5.7e-4,-1.91796 0.71708,-3.95159 2.99483,-3.97912 -0.10427,0.0332 1.21982,-0.32846 0.35874,-0.086 z m 297.79025,10.4035 c -17.04809,0.497 1.33903,2.41028 3.20892,2.91741 27.60841,7.76144 55.06734,16.47289 81.9196,26.3813 2.2944,0.82875 5.03731,1.64075 5.49358,4.43161 1.90017,5.47478 3.56798,11.23271 4.44193,16.86851 -3.18391,9.81222 -7.87286,19.19004 -13.73565,27.6748 -9.33266,12.54898 -21.62442,23.0085 -36.12786,29.08527 -7.66294,3.69294 -16.23599,4.65258 -24.10981,7.68366 -4.75569,2.02312 -4.18008,7.98321 -6.92133,11.66367 -6.79408,10.72875 -19.5071,15.55827 -31.01547,19.16592 -9.35678,2.63776 -18.41125,6.14592 -27.31046,10.02967 -14.06948,5.30536 -28.65358,9.50117 -43.55026,11.49138 19.31893,-2.92105 38.05821,-8.96156 55.80718,-17.0631 9.82932,-3.47261 20.28044,-5.24972 29.55545,-10.22861 8.23184,-3.93824 16.42358,-10.09414 18.72915,-19.39777 -0.31401,-3.25802 2.1885,-5.7966 5.29347,-6.25879 12.18566,-3.12837 24.62811,-6.56378 35.26201,-13.62065 13.81398,-9.08845 25.61832,-21.71376 32.28153,-36.97094 2.06091,-4.6469 4.66137,-9.36127 5.40768,-14.36024 -1.3222,-5.93015 -2.47244,-12.1426 -5.42107,-17.50104 -3.89249,-2.87493 -8.98076,-3.65915 -13.36347,-5.59995 -26.48707,-9.69534 -53.43833,-18.52289 -80.87665,-24.89125 -0.60673,-0.19479 -3.5776,-0.91999 -1.41483,-1.18147 2.06199,-0.31538 4.67123,-0.3829 6.44636,-0.31939 z m 0.0183,-0.11362 c 12.95149,0.22838 24.86505,0.49949 37.41151,3.71998 21.3121,5.4705 41.9516,16.01547 54.46569,24.37365 1.32984,0.5238 -2.36588,-1.05453 -2.97295,-1.58387 -18.45358,-11.76756 -39.03221,-20.23221 -60.45658,-24.71408 -0.45601,-0.10359 -29.02422,-1.88184 -28.44767,-1.79568 z m -217.77166,6.71007 c -29.46995,4.46447 -59.01815,9.01212 -87.89717,16.4948 -2.13882,1.39178 -0.90247,4.70364 -1.22753,6.85799 0.46944,16.44952 4.85437,32.75934 12.91525,47.12338 1.95471,3.11253 3.27654,7.03604 6.35643,9.21021 2.59275,0.047 3.18159,-3.57496 4.64667,-5.16101 12.89106,-20.42757 31.74465,-36.77233 52.78401,-48.5102 21.7242,-11.79934 46.13255,-18.25554 70.70444,-20.27217 11.31516,-0.6169 22.9976,-1.23717 34.1149,0.45079 1.01778,2.25785 -3.55321,0.98804 -5.04169,1.80383 -24.12604,2.82975 -48.29236,6.85086 -71.17076,15.27666 -23.86269,8.49239 -46.36821,21.23572 -64.84253,38.68277 -6.36563,5.95656 -12.79919,12.03716 -17.84465,19.17528 -1.70789,3.32805 2.50996,5.73543 4.19874,7.99482 9.77154,10.35943 21.06852,19.33663 33.89467,25.6189 10.51262,5.31712 24.37355,12.4516 36.8172,12.36828 -11.66997,0.42728 -25.62641,-6.39038 -35.69155,-11.41194 -14.47049,-7.5812 -28.0656,-17.41462 -38.51347,-29.96773 -1.46888,-1.30411 -1.04019,-3.28256 -2.01518,-4.72587 -2.98602,-0.69183 -4.48316,-3.84908 -6.16791,-6.17069 -8.29683,-13.00175 -13.11395,-27.67563 -14.88315,-42.93872 -0.43656,-4.88496 -1.18516,-9.90701 -0.0223,-14.72005 3.12707,-2.06638 7.23367,-2.28778 10.79334,-3.41721 27.04133,-6.26378 54.48773,-10.55871 81.97887,-14.33134 l -3.88667,0.56922 z m 139.01692,3.85922 c 32.76305,0.0493 66.57179,6.53073 94.23325,25.03917 8.19205,5.93349 15.75433,12.87373 22.14452,20.71228 0.42221,0.47018 1.30391,2.47594 -0.0723,1.49079 -10.15833,-5.9495 -19.8083,-12.80155 -30.39645,-18.02487 -19.97879,-9.72616 -41.58421,-15.55069 -63.07904,-20.86187 -10.42372,-2.69839 -21.139,-4.13034 -31.55143,-6.82719 -0.83964,-0.59963 1.74046,-1.60562 2.50478,-1.42764 2.06689,-0.12892 4.12004,-0.0852 6.21666,-0.10067 z m -13.06295,10.89128 c 7.72999,1.24256 14.88291,4.85064 22.01502,7.94997 19.01671,8.79187 36.30025,21.12337 51.00166,35.99486 9.93715,10.30705 17.9711,22.36108 23.26058,35.66926 0.67539,2.02204 2.02632,4.333 1.94288,6.42165 -2.04514,0.0763 -2.96583,-2.77686 -4.3232,-3.92328 -22.65305,-31.0801 -53.68818,-54.77662 -85.61477,-75.63772 -2.88157,-2.19143 -6.56839,-3.60051 -9.08384,-6.13887 -0.0165,-0.39538 0.56557,-0.28665 0.80167,-0.33587 z m 195.09303,4.24611 c -1.24599,0.27045 -11.18752,2.50316 -10.87602,2.43372 0.45822,-0.10215 11.58232,-2.59548 10.87602,-2.43372 z m -215.05169,1.97696 c 0.72732,0.0164 2.72897,-0.21878 2.43367,1.45154 -0.46448,2.6272 -2.78871,8.27935 -4.06264,8.78541 0.83839,-0.44254 4.18758,-7.06442 4.31971,-9.58887 0.0836,-1.59767 -4.51896,-0.13418 -5.05173,-0.0481 0.40196,-0.12171 1.9399,-0.61153 2.36099,-0.59993 z m -2.34829,0.63878 c -9.24522,6.62 -16.93544,15.14773 -25.12838,22.97959 -21.01361,20.48701 -39.87441,43.04725 -57.42276,66.53986 -4.27685,5.255 -7.80441,11.22714 -12.74599,15.88833 0.25281,-0.41526 2.20418,-2.4862 2.98982,-3.59473 22.57605,-29.86848 45.68247,-59.54661 72.87465,-85.40796 6.33643,-5.71819 12.22078,-12.34709 19.63582,-16.51674 z m 0.57289,9.94227 c -21.94178,24.02483 -36.06276,53.83929 -48.91571,83.39961 -3.90142,9.6159 -8.24526,19.12655 -11.25403,29.05854 0.93282,2.56544 4.34531,3.17931 6.43904,4.59958 15.88739,7.81774 33.27449,13.25654 51.12679,13.12089 4.67102,0.11623 24.64132,-0.97796 28.74811,-1.01976 -7.44647,0.44274 -18.70186,1.09181 -29.72403,1.1772 -10.23911,0.0793 -20.50417,-2.09857 -27.11911,-4.0151 -10.40706,-2.9038 -20.43423,-7.18892 -29.66024,-12.76827 -0.649,-1.69596 1.00926,-3.68059 1.28182,-5.39227 6.56574,-18.17991 14.00681,-35.99155 23.03935,-53.07101 8.78935,-16.92577 17.57952,-34.14088 30.21194,-48.61765 2.02371,-2.41543 4.12806,-4.92761 6.34612,-7.16798 l -0.34212,0.4836 z"
       id="path3523"
       transform="scale(0.26458333)"
       sodipodi:nodetypes="cscccccccccccccccccccccccccccccccccscccccccccssccccccccccccccccccccccccccccccccccccccccccccccccccccccccccccccccccccccccccccccccccccccccscccccsssccccsscccccccccccccccccccccccccsccccsccccccccccccccccccccccccsscccccccssccccccccccsccscscccccccccccccccccscccccccc" /><path
       style="fill:#77b53b;fill-opacity:1;stroke:#77b53b;stroke-width:1.0181;stroke-linecap:round;stroke-dasharray:none;stroke-opacity:1"
       d="m 291.73008,736.38656 c -16.51854,-11.81157 0.70749,2.82936 1.97449,4.06098 18.91905,15.57223 38.57545,30.21759 56.60746,46.84005 8.40697,7.52339 16.64604,15.26516 24.23885,23.60556 5.48009,5.77135 2.389,-1.29698 0.88311,-2.74782 -15.50971,-28.42836 -41.40925,-49.71102 -69.42335,-65.13643 -4.68412,-2.26499 -9.25702,-5.26669 -14.28056,-6.62234 z"
       id="path3525"
       transform="scale(0.26458333)"
       sodipodi:nodetypes="ccccccc" /><path
       style="fill:#77b53b;fill-opacity:1;stroke:#77b53b;stroke-width:1.0181;stroke-linecap:round;stroke-dasharray:none;stroke-opacity:1"
       d="m 357.74768,830.00255 c -17.12685,0.43369 -34.45121,1.17368 -51.00877,5.98778 -23.54693,5.93132 -45.94192,16.74966 -64.50692,32.49731 -9.95021,8.5876 -19.21034,18.24277 -26.22291,29.40766 -1.26533,1.74102 1.43149,2.70808 2.2343,0.99642 13.58337,-13.63748 27.88706,-26.84054 45.0576,-35.85321 13.30053,-7.6225 27.28458,-14.097 42.06425,-18.36614 18.32024,-5.71189 37.26183,-9.08643 56.28193,-11.40546 1.74235,0.0842 16.669,-1.87177 2.64572,-2.79123 -2.01793,-0.79106 -4.4195,-0.34745 -6.5452,-0.47313 z"
       id="path3527"
       transform="scale(0.26458333)"
       sodipodi:nodetypes="cccccccccc" /><path
       style="fill:#77b53b;fill-opacity:1;stroke:#77b53b;stroke-width:1.0181;stroke-linecap:round;stroke-dasharray:none;stroke-opacity:1"
       d="m 411.33836,841.33219 c -11.06383,-3.69723 -0.72189,2.30773 1.23982,3.29474 19.22861,13.30693 39.09938,25.80327 55.90376,42.19499 11.42656,11.07714 22.94771,22.20183 31.91492,35.43486 0.61814,1.53624 2.97382,0.71743 2.19272,-0.84286 -8.92681,-24.29202 -27.68253,-43.69445 -48.55823,-58.34034 -12.95869,-8.92591 -27.03098,-16.36886 -41.86111,-21.63981 -0.27231,-0.0614 -0.55104,-0.11811 -0.83188,-0.10158 z"
       id="path3529"
       transform="scale(0.26458333)"
       sodipodi:nodetypes="cccccccc" /><path
       style="fill:#77b53b;fill-opacity:1;stroke:#77b53b;stroke-width:1.0181;stroke-linecap:round;stroke-dasharray:none;stroke-opacity:1"
       d="m 419.17851,829.18714 c -7.80001,0 -3.95182,2.48336 0.0592,2.62655 32.82465,7.69001 66.46621,14.682 96.05398,31.37424 5.966,3.42793 11.57089,7.40158 17.19876,11.30955 1.98336,0.59047 1.763,-2.14133 0.42189,-2.79031 -6.74594,-6.70339 -13.69263,-13.31987 -21.36983,-18.94741 -21.33604,-13.12511 -45.94908,-20.60531 -70.8359,-22.81761 -7.166,-0.43309 -14.34821,-0.75555 -21.52815,-0.75501 z"
       id="path3531"
       transform="scale(0.26458333)"
       sodipodi:nodetypes="sccccccss" /><path
       style="fill:#77b53b;fill-opacity:1;stroke:#77b53b;stroke-width:1.0181;stroke-linecap:round;stroke-dasharray:none;stroke-opacity:1"
       d="m 446.61768,702.07598 c -4.04598,-22.17487 -9.88412,16.62642 -14.10991,23.34151 -13.92573,23.55902 -23.50962,49.88343 -26.73265,77.14224 -0.82831,7.93314 1.63029,4.93092 2.33914,-0.42097 12.88325,-30.10395 24.11952,-60.93433 37.98337,-90.59358 0.30691,-1.72106 11.875,-9.28596 3.43713,-7.74874 l 0.81806,-1.39893 z"
       id="path3533"
       transform="scale(0.26458333)"
       sodipodi:nodetypes="cccccccc" /><path
       style="fill:#50920a;fill-opacity:1;stroke:#77b53b;stroke-width:0;stroke-linecap:round;stroke-dasharray:none;stroke-opacity:1"
       d="m 384.35404,694.01937 c -14.39462,0.0803 -28.66041,2.96809 -42.45489,6.91336 -10.62919,3.40646 -20.9458,8.08649 -30.27538,14.22128 -1.80893,2.14262 1.9511,3.38478 3.33875,4.28997 14.60429,7.20998 29.16884,14.92151 40.70976,26.59095 15.64737,15.65172 27.95617,35.15696 33.44472,56.73097 0.71855,3.26782 2.24739,7.13599 1.83898,10.22113 -7.42429,-12.57572 -14.02109,-25.70515 -22.66031,-37.53931 -14.86882,-20.4685 -33.52864,-38.10709 -54.25863,-52.54691 -2.98282,-1.73497 -6.78716,-5.02 -10.25708,-2.51577 -5.06419,3.5429 -9.77984,7.72596 -13.85365,12.37018 -1.36869,2.2894 2.32914,2.90933 3.6181,3.88447 23.26706,11.42487 45.47533,25.8584 62.85982,45.29149 7.97581,9.12256 16.09489,18.69239 20.35584,30.19744 -13.40418,-11.88681 -25.5824,-25.12707 -39.53079,-36.41783 -16.00025,-13.32659 -32.37891,-26.18933 -48.59975,-39.24461 -6.61012,0.0419 -13.17217,2.30822 -19.60867,3.88094 -28.16356,7.49873 -51.75919,28.09093 -65.54456,53.46932 -1.61602,3.23237 -3.86697,6.29367 -4.80029,9.79389 1.06948,2.13273 3.70466,-0.24043 5.37064,-0.4319 17.58076,-6.55524 36.24482,-10.25855 55.02328,-9.83762 21.11916,-0.4329 42.33057,3.67859 61.87901,11.68355 2.40267,1.07535 4.88615,2.0029 7.20256,3.28073 -0.94836,1.28866 -3.22135,-0.11871 -4.61971,0.0137 -19.88899,-3.66752 -40.09316,-6.01565 -60.35551,-5.74466 -16.86547,-0.24567 -33.73699,0.66945 -50.42904,3.14755 -4.74305,0.93234 -9.90244,0.83232 -14.3229,2.88813 -2.4494,2.89846 -1.73989,7.22141 -2.5814,10.71774 -0.57551,5.45964 -1.97933,10.88997 -2.70546,16.30959 1.01393,2.30461 3.7812,-0.038 5.35926,-0.37365 17.17237,-7.43414 35.31651,-12.5159 53.93834,-14.74234 14.08001,-0.91161 28.25852,-1.58768 42.33699,-0.7208 1.50567,-0.0487 0.48247,1.40928 -0.48961,1.39561 -10.2351,3.37292 -21.22653,4.11278 -31.83303,6.04974 -23.39159,3.79937 -46.87296,7.56284 -69.76587,13.7689 -3.39148,0.84305 -2.01062,4.97993 -2.14513,7.46036 0.2165,17.10154 5.48174,33.81809 13.81838,48.65744 1.72295,2.55574 2.87334,6.96473 6.45418,7.37396 2.44277,-0.70561 2.77566,-3.98397 4.43668,-5.64286 18.17313,-27.65238 46.25922,-48.21104 77.503,-58.63822 23.36083,-7.95461 48.17861,-10.92051 72.71148,-9.60726 2.03159,0.39109 4.88334,-0.0596 6.50066,0.99151 -5.18072,1.67135 -10.86422,1.39023 -16.22296,2.39096 -37.47264,4.80703 -74.98725,15.70946 -106.21123,37.58971 -12.72039,9.05968 -24.25176,19.81791 -34.41639,31.65874 -1.51702,1.85379 -3.71971,4.78222 -1.30319,6.87466 11.77053,13.25562 25.8344,24.64981 42.01695,32.07001 10.0622,4.82214 20.67088,9.64494 31.92808,10.1037 4.49834,-4.17565 7.82761,-9.70599 11.78073,-14.47274 20.10781,-26.59027 41.37551,-52.42716 65.55244,-75.43282 6.07493,-5.5279 11.65178,-11.99252 19.07461,-15.74527 1.04768,-0.24689 3.13113,-1.10808 3.92145,-0.20774 -0.76536,5.67617 -4.40264,10.33558 -8.27759,14.36156 -23.10092,27.66663 -37.59418,61.13634 -51.20657,94.16904 -1.58347,4.6332 -4.10508,9.13914 -4.68939,14.02173 1.2804,3.07352 5.2292,3.75387 7.81585,5.41109 18.09152,8.82811 38.3397,13.97891 58.54951,12.24138 12.76559,-0.47192 25.68818,-0.79148 38.03335,-4.45465 13.87899,-3.57255 27.13637,-9.068 40.48894,-14.17704 13.78071,-4.55239 29.14628,-7.8108 39.56224,-18.72228 3.04395,-3.38778 5.60661,-7.4758 6.0739,-12.07092 1.26525,-4.20277 6.36647,-4.21083 9.79202,-5.53778 14.48005,-3.57803 28.60946,-9.57417 39.90189,-19.51476 10.72223,-8.95103 19.21198,-20.46682 24.50373,-33.4002 1.95503,-4.58338 4.85966,-9.54536 3.0352,-14.67379 -1.46678,-5.01732 -2.04325,-10.89573 -5.82863,-14.80267 -11.54655,-5.08368 -23.66691,-8.83991 -35.56484,-13.04282 -18.73522,-6.48168 -37.8337,-11.81751 -57.01794,-16.77665 -3.67666,-0.8752 1.63892,-0.77518 2.95962,-0.87673 15.73638,-0.21949 31.76253,0.80564 46.75219,5.96676 16.28702,5.16863 31.99754,12.73007 46.47303,21.8714 3.9627,-0.5012 8.24781,-1.19443 11.91351,-3.01086 3.61223,-2.7081 2.1418,-7.98239 2.63169,-11.83008 -0.0525,-10.51177 0.68981,-21.38534 -3.2664,-31.37433 -3.94106,-12.18604 -10.80509,-23.31405 -19.86572,-32.36376 -12.47352,-13.18666 -27.84526,-23.33207 -44.39922,-30.6536 -18.44278,-8.57917 -37.8383,-15.20179 -57.78904,-19.20324 -2.63529,1.47519 -3.76802,5.03959 -5.81469,7.32841 -20.82135,29.62784 -41.5323,59.39831 -63.02891,88.51141 -0.37151,-0.38919 0.30528,-2.82091 0.579,-3.85477 3.83678,-10.2805 9.21566,-19.90714 14.50553,-29.48807 12.04428,-20.63328 27.15134,-39.26947 43.63389,-56.49101 2.17629,-2.89335 5.72409,-5.14487 6.81322,-8.69379 -1.30779,-4.02563 -5.75754,-6.05765 -9.27328,-7.87035 -5.09263,-2.20959 -10.79286,-3.73213 -16.30444,-3.31287 -15.97978,32.59062 -28.67589,66.65846 -42.27098,100.28363 -0.52945,1.03268 -1.93384,4.94273 -1.66621,1.98975 0.40836,-17.38238 5.42877,-34.28046 11.60286,-50.38947 7.15723,-17.30735 16.57039,-33.60345 27.29731,-48.96181 0.99049,-1.39438 2.58389,-4.42556 -0.0943,-4.98669 -19.58829,-5.45821 -39.96542,-8.05497 -60.28963,-8.04057 z m 36.28689,135.16137 c 30.33408,0.13604 61.42097,6.027 87.65831,21.87317 9.66801,6.14479 18.75313,13.95839 26.05107,23.02367 1.4802,1.79594 0.30525,1.37223 -1.14443,0.32994 -15.53784,-9.56613 -31.11769,-19.4784 -48.57721,-25.20798 -22.932,-8.09082 -46.7754,-13.43035 -70.52542,-18.2988 -0.88737,-0.33924 -3.16319,-0.55285 -3.36249,-1.17274 3.23859,-0.77017 6.594,-0.43992 9.90017,-0.54726 z m -14.71481,10.91965 c 9.59333,1.57832 18.32255,6.23369 27.01023,10.3433 21.61182,11.09744 41.51957,26.37252 56.1342,45.92394 6.24047,8.74877 11.64911,18.44752 14.4955,28.64011 -1.59461,-0.2951 -2.79274,-2.80381 -4.01475,-4.024 -13.85833,-18.2904 -30.20464,-34.61342 -48.3183,-48.68733 -14.49093,-11.6436 -30.18871,-21.62615 -45.44598,-32.19877 z"
       id="path3813"
       transform="scale(0.26458333)" /><use
       id="use7312"
       inkscape:spray-origin="#path3813"
       xlink:href="#path3813"
       transform="matrix(1.2792932,-1.4002788,1.4002788,1.2792932,1522.5682,725.81292)" /><use
       id="use7314"
       inkscape:spray-origin="#path3813"
       xlink:href="#path3813"
       transform="matrix(0.51617701,-0.06917289,0.06917289,0.51617701,713.33397,987.23355)" /><use
       id="use7316"
       inkscape:spray-origin="#path3813"
       xlink:href="#path3813"
       transform="matrix(0.72056631,-0.49002524,0.49002524,0.72056631,322.94772,875.65983)" /><use
       id="use7318"
       inkscape:spray-origin="#path3813"
       xlink:href="#path3813"
       transform="matrix(1.1760535,-0.57477418,0.57477418,1.1760535,106.22371,654.3866)" /><use
       id="use7320"
       inkscape:spray-origin="#path3813"
       xlink:href="#path3813"
       transform="matrix(0.33622727,0.23908537,-0.23908537,0.33622727,361.93772,1671.5364)" /><use
       id="use7322"
       inkscape:spray-origin="#path3813"
       xlink:href="#path3813"
       transform="matrix(1.6557142,-0.11002605,0.11002605,1.6557142,302.05095,392.82881)" /><use
       id="use7324"
       inkscape:spray-origin="#path3813"
       xlink:href="#path3813"
       transform="matrix(0.08725203,-0.11604482,0.11604482,0.08725203,980.4293,496.29778)" /><use
       id="use7326"
       inkscape:spray-origin="#path3813"
       xlink:href="#path3813"
       transform="matrix(3.0551528e-4,0.01017079,-0.01017079,3.0551528e-4,753.26855,1040.7556)" /><use
       id="use7328"
       inkscape:spray-origin="#path3813"
       xlink:href="#path3813"
       transform="matrix(0.23707414,-0.28011259,0.28011259,0.23707414,-130.88933,1272.6403)" /><use
       id="use7330"
       inkscape:spray-origin="#path3813"
       xlink:href="#path3813"
       transform="matrix(0.0643677,1.4542311,-1.4542311,0.0643677,625.01154,213.19815)" /><use
       id="use7332"
       inkscape:spray-origin="#path3813"
       xlink:href="#path3813"
       transform="matrix(0.85654749,0.31340493,-0.31340493,0.85654749,-148.43888,-207.46027)" /><use
       id="use7334"
       inkscape:spray-origin="#path3813"
       xlink:href="#path3813"
       transform="matrix(0.41341533,-1.4327575,1.4327575,0.41341533,-1102.6038,685.58303)" /><use
       id="use7336"
       inkscape:spray-origin="#path3813"
       xlink:href="#path3813"
       transform="matrix(0.13568566,-0.31747379,0.31747379,0.13568566,-561.42082,160.00379)" /><use
       id="use7338"
       inkscape:spray-origin="#path3813"
       xlink:href="#path3813"
       transform="matrix(0.75333373,0.93827077,-0.93827077,0.75333373,-779.44354,985.68078)" /><use
       id="use7340"
       inkscape:spray-origin="#path3813"
       xlink:href="#path3813"
       transform="matrix(0.92182588,-0.97329921,0.97329921,0.92182588,-1405.0338,1408.6137)" /><use
       id="use7342"
       inkscape:spray-origin="#path3813"
       xlink:href="#path3813"
       transform="matrix(0.63217823,0.07396506,-0.07396506,0.63217823,-1206.6482,733.29617)" /><use
       id="use7344"
       inkscape:spray-origin="#path3813"
       xlink:href="#path3813"
       transform="matrix(0.92987056,-0.58987812,0.58987812,0.92987056,-2449.5679,-29.40439)" /><use
       id="use7346"
       inkscape:spray-origin="#path3813"
       xlink:href="#path3813"
       transform="matrix(0.29842281,-0.43202846,0.43202846,0.29842281,-2180.632,-125.20743)" /><use
       id="use7348"
       inkscape:spray-origin="#path3813"
       xlink:href="#path3813"
       transform="matrix(0.33817341,-0.01810732,0.01810732,0.33817341,-2478.51,413.32622)" /><use
       id="use7350"
       inkscape:spray-origin="#path3813"
       xlink:href="#path3813"
       transform="matrix(0.27215023,0.39073197,-0.39073197,0.27215023,-1852.6241,1069.6778)" /><use
       id="use7352"
       inkscape:spray-origin="#path3813"
       xlink:href="#path3813"
       transform="matrix(1.2952498,0.19655686,-0.19655686,1.2952498,-3216.0977,188.49822)" /><use
       id="use7354"
       inkscape:spray-origin="#path3813"
       xlink:href="#path3813"
       transform="matrix(1.3185528,0.8634072,-0.8634072,1.3185528,-2634.3758,-425.21665)" /><use
       id="use7356"
       inkscape:spray-origin="#path3813"
       xlink:href="#path3813"
       transform="matrix(0.43006187,-0.019386,0.019386,0.43006187,-2534.5507,356.87737)" /><use
       id="use7358"
       inkscape:spray-origin="#path3813"
       xlink:href="#path3813"
       transform="matrix(0.01701025,1.0525733,-1.0525733,0.01701025,-3046.052,842.20554)" /><use
       id="use7360"
       inkscape:spray-origin="#path3813"
       xlink:href="#path3813"
       transform="matrix(0.44907859,-0.93581094,0.93581094,0.44907859,-3112.6338,1111.7478)" /><use
       id="use7362"
       inkscape:spray-origin="#path3813"
       xlink:href="#path3813"
       transform="matrix(0.03977329,-0.44030366,0.44030366,0.03977329,-2210.4473,105.77067)" /><use
       id="use7364"
       inkscape:spray-origin="#path3813"
       xlink:href="#path3813"
       transform="matrix(0.11253172,1.6088406,-1.6088406,0.11253172,-2604.5076,939.10959)" /><use
       id="use7366"
       inkscape:spray-origin="#path3813"
       xlink:href="#path3813"
       transform="matrix(0.12051468,0.21637462,-0.21637462,0.12051468,-3102.6418,731.43602)" /><use
       id="use7368"
       inkscape:spray-origin="#path3813"
       xlink:href="#path3813"
       transform="matrix(0.27980492,0.45271956,-0.45271956,0.27980492,-2940.7026,231.37211)" /><use
       id="use7370"
       inkscape:spray-origin="#path3813"
       xlink:href="#path3813"
       transform="matrix(0.17213741,0.01594961,-0.01594961,0.17213741,-2360.5516,535.5061)" /><use
       id="use7372"
       inkscape:spray-origin="#path3813"
       xlink:href="#path3813"
       transform="matrix(0.12094181,0.10653348,-0.10653348,0.12094181,-2399.4847,162.1605)" /><use
       id="use7374"
       inkscape:spray-origin="#path3813"
       xlink:href="#path3813"
       transform="matrix(1.0660649,-0.92811205,0.92811205,1.0660649,-2597.9131,-507.90628)" /><use
       id="use7376"
       inkscape:spray-origin="#path3813"
       xlink:href="#path3813"
       transform="matrix(0.28372415,-1.7247631,1.7247631,0.28372415,-3098.055,533.91635)" /><use
       id="use7378"
       inkscape:spray-origin="#path3813"
       xlink:href="#path3813"
       transform="matrix(0.21092338,-0.21608836,0.21608836,0.21092338,-1707.9258,-564.28266)" /><use
       id="use7380"
       inkscape:spray-origin="#path3813"
       xlink:href="#path3813"
       transform="matrix(1.3639682,0.83652678,-0.83652678,1.3639682,-2786.7399,-1275.8544)" /><use
       id="use7382"
       inkscape:spray-origin="#path3813"
       xlink:href="#path3813"
       transform="matrix(1.0828534,0.64639275,-0.64639275,1.0828534,-2281.5035,-1101.5421)" /><use
       id="use7384"
       inkscape:spray-origin="#path3813"
       xlink:href="#path3813"
       transform="matrix(0.43385903,0.95491251,-0.95491251,0.43385903,-2414.7767,33.624915)" /><use
       id="use7386"
       inkscape:spray-origin="#path3813"
       xlink:href="#path3813"
       transform="matrix(0.26314993,-0.16303804,0.16303804,0.26314993,-2821.9632,-1317.8465)" /><use
       id="use7388"
       inkscape:spray-origin="#path3813"
       xlink:href="#path3813"
       transform="matrix(1.4524757,0.4206005,-0.4206005,1.4524757,-3098.6536,-901.33233)" /><use
       id="use7390"
       inkscape:spray-origin="#path3813"
       xlink:href="#path3813"
       transform="matrix(0.14779766,0.16416505,-0.16416505,0.14779766,-1369.681,-907.44932)" /><use
       id="use7392"
       inkscape:spray-origin="#path3813"
       xlink:href="#path3813"
       transform="matrix(0.60898944,1.4551032,-1.4551032,0.60898944,-2057.014,-603.52901)" /><use
       id="use7394"
       inkscape:spray-origin="#path3813"
       xlink:href="#path3813"
       transform="matrix(0.66504032,0.23998592,-0.23998592,0.66504032,-1544.7801,-1351.1174)" /><use
       id="use7396"
       inkscape:spray-origin="#path3813"
       xlink:href="#path3813"
       transform="matrix(1.303468,-1.2684401,1.2684401,1.303468,-1327.1577,-1272.581)" /><use
       id="use7398"
       inkscape:spray-origin="#path3813"
       xlink:href="#path3813"
       transform="matrix(0.75621714,0.69850492,-0.69850492,0.75621714,-2200.5592,-934.25066)" /><use
       id="use7400"
       inkscape:spray-origin="#path3813"
       xlink:href="#path3813"
       transform="matrix(1.8357181,-0.23093516,0.23093516,1.8357181,-988.78934,-1821.0578)" /><use
       id="use7402"
       inkscape:spray-origin="#path3813"
       xlink:href="#path3813"
       transform="matrix(1.0696246,0.20767812,-0.20767812,1.0696246,-288.84287,-1218.9071)" /><use
       id="use7404"
       inkscape:spray-origin="#path3813"
       xlink:href="#path3813"
       transform="matrix(0.66213638,0.77455918,-0.77455918,0.66213638,-759.00279,-936.16322)" /><use
       id="use7406"
       inkscape:spray-origin="#path3813"
       xlink:href="#path3813"
       transform="matrix(0.78416725,0.45030503,-0.45030503,0.78416725,-259.71547,-533.30459)" /><use
       id="use7408"
       inkscape:spray-origin="#path3813"
       xlink:href="#path3813"
       transform="matrix(0.02827389,1.6822571,-1.6822571,0.02827389,648.23355,-249.50654)" /><use
       id="use7410"
       inkscape:spray-origin="#path3813"
       xlink:href="#path3813"
       transform="matrix(0.31699044,1.2885524,-1.2885524,0.31699044,159.96236,-354.10708)" /><use
       id="use7412"
       inkscape:spray-origin="#path3813"
       xlink:href="#path3813"
       transform="matrix(1.5265562,-0.01657525,0.01657525,1.5265562,-1110.5739,-1304.4077)" /><use
       id="use7414"
       inkscape:spray-origin="#path3813"
       xlink:href="#path3813"
       transform="matrix(0.75312916,1.7919619,-1.7919619,0.75312916,46.809427,-788.26792)" /><use
       id="use7416"
       inkscape:spray-origin="#path3813"
       xlink:href="#path3813"
       transform="matrix(0.23675433,-0.09872809,0.09872809,0.23675433,47.680535,-140.15153)" /><use
       id="use7418"
       inkscape:spray-origin="#path3813"
       xlink:href="#path3813"
       transform="matrix(0.07592752,0.82687096,-0.82687096,0.07592752,21.019528,-178.88458)" /><use
       id="use7420"
       inkscape:spray-origin="#path3813"
       xlink:href="#path3813"
       transform="matrix(1.0794804,-1.0914731,1.0914731,1.0794804,12.453033,-1621.0423)" /><use
       id="use7422"
       inkscape:spray-origin="#path3813"
       xlink:href="#path3813"
       transform="matrix(0.9818208,1.6566017,-1.6566017,0.9818208,583.5619,-2147.3849)" /><use
       id="use7424"
       inkscape:spray-origin="#path3813"
       xlink:href="#path3813"
       transform="matrix(0.06651594,0.98547618,-0.98547618,0.06651594,1705.3047,-541.59928)" /><use
       id="use7426"
       inkscape:spray-origin="#path3813"
       xlink:href="#path3813"
       transform="matrix(1.0160345,-0.78319373,0.78319373,1.0160345,980.6677,-1344.7083)" /><use
       id="use7428"
       inkscape:spray-origin="#path3813"
       xlink:href="#path3813"
       transform="matrix(0.1559739,-0.15475965,0.15475965,0.1559739,896.74808,-1251.2304)" /><use
       id="use7430"
       inkscape:spray-origin="#path3813"
       xlink:href="#path3813"
       transform="matrix(1.6893884,-0.50059334,0.50059334,1.6893884,367.64597,-965.76727)" /><use
       id="use7432"
       inkscape:spray-origin="#path3813"
       xlink:href="#path3813"
       transform="matrix(0.40860603,-0.26845221,0.26845221,0.40860603,1148.7049,-816.11051)" /><use
       id="use7434"
       inkscape:spray-origin="#path3813"
       xlink:href="#path3813"
       transform="matrix(0.14923517,0.13338741,-0.13338741,0.14923517,1077.5778,-463.74568)" /><use
       id="use7436"
       inkscape:spray-origin="#path3813"
       xlink:href="#path3813"
       transform="matrix(0.15456916,1.790129,-1.790129,0.15456916,1516.4103,-929.57189)" /><use
       id="use7438"
       inkscape:spray-origin="#path3813"
       xlink:href="#path3813"
       transform="matrix(1.454246,0.54028058,-0.54028058,1.454246,-32.58304,-1465.3877)" /><use
       id="use7440"
       inkscape:spray-origin="#path3813"
       xlink:href="#path3813"
       transform="matrix(1.0217141,-1.5042548,1.5042548,1.0217141,-651.71425,-1209.8768)" /><use
       id="use7442"
       inkscape:spray-origin="#path3813"
       xlink:href="#path3813"
       transform="matrix(0.4501794,0.5782185,-0.5782185,0.4501794,-88.679242,-1176.3231)" /><use
       id="use7444"
       inkscape:spray-origin="#path3813"
       xlink:href="#path3813"
       transform="matrix(0.87630275,0.03221067,-0.03221067,0.87630275,-517.79335,-1728.5421)" /><use
       id="use7446"
       inkscape:spray-origin="#path3813"
       xlink:href="#path3813"
       transform="matrix(0.02372726,1.0559674,-1.0559674,0.02372726,-375.75249,-970.39433)" /><use
       id="use7448"
       inkscape:spray-origin="#path3813"
       xlink:href="#path3813"
       transform="matrix(0.16348713,-1.4181449,1.4181449,0.16348713,-1329.019,-2042.1807)" /><use
       id="use7450"
       inkscape:spray-origin="#path3813"
       xlink:href="#path3813"
       transform="matrix(0.59516515,0.56556206,-0.56556206,0.59516515,-768.01638,-2343.8888)" /><use
       id="use7452"
       inkscape:spray-origin="#path3813"
       xlink:href="#path3813"
       transform="matrix(1.5569832,-0.44940573,0.44940573,1.5569832,-1591.5197,-1521.0012)" /><use
       id="use7454"
       inkscape:spray-origin="#path3813"
       xlink:href="#path3813"
       transform="matrix(1.1607198,1.1816308,-1.1816308,1.1607198,-2068.8246,-2275.2957)" /><use
       id="use7456"
       inkscape:spray-origin="#path3813"
       xlink:href="#path3813"
       transform="matrix(0.32534287,0.17654905,-0.17654905,0.32534287,-1990.1139,-2141.0041)" /><use
       id="use7458"
       inkscape:spray-origin="#path3813"
       xlink:href="#path3813"
       transform="matrix(0.10443668,0.97429576,-0.97429576,0.10443668,-1854.8729,-2494.4536)" /><use
       id="use7460"
       inkscape:spray-origin="#path3813"
       xlink:href="#path3813"
       transform="matrix(0.60140282,0.46266965,-0.46266965,0.60140282,-1810.1327,-1465.181)" /><use
       id="use7462"
       inkscape:spray-origin="#path3813"
       xlink:href="#path3813"
       transform="matrix(0.15098447,-0.07001976,0.07001976,0.15098447,-3223.0236,-1347.7559)" /><use
       id="use7464"
       inkscape:spray-origin="#path3813"
       xlink:href="#path3813"
       transform="matrix(0.50636926,0.4847477,-0.4847477,0.50636926,-2730.9545,-2266.7528)" /><use
       id="use7466"
       inkscape:spray-origin="#path3813"
       xlink:href="#path3813"
       transform="matrix(1.3640191,-1.0174393,1.0174393,1.3640191,-2828.2718,-1943.1757)" /><use
       id="use7468"
       inkscape:spray-origin="#path3813"
       xlink:href="#path3813"
       transform="matrix(0.02396666,0.54522587,-0.54522587,0.02396666,-2826.9117,-1068.3893)" /><use
       id="use7470"
       inkscape:spray-origin="#path3813"
       xlink:href="#path3813"
       transform="matrix(0.4194326,-1.1603125,1.1603125,0.4194326,-2754.2226,-703.57613)" /><use
       id="use7472"
       inkscape:spray-origin="#path3813"
       xlink:href="#path3813"
       transform="matrix(1.6123382,-0.70854117,0.70854117,1.6123382,-2568.9517,-1224.8746)" /><use
       id="use7474"
       inkscape:spray-origin="#path3813"
       xlink:href="#path3813"
       transform="matrix(0.01511772,0.04289061,-0.04289061,0.01511772,-2357.6864,-992.25433)" /><use
       id="use7476"
       inkscape:spray-origin="#path3813"
       xlink:href="#path3813"
       transform="matrix(0.96329647,-0.0462281,0.0462281,0.96329647,-2682.5553,-1464.7818)" /><use
       id="use7478"
       inkscape:spray-origin="#path3813"
       xlink:href="#path3813"
       transform="matrix(1.0761999,-0.85747975,0.85747975,1.0761999,-3352.7076,-1906.1093)" /><use
       id="use7480"
       inkscape:spray-origin="#path3813"
       xlink:href="#path3813"
       transform="matrix(0.85490554,1.1837208,-1.1837208,0.85490554,-1918.4651,-566.12505)" /><use
       id="use7482"
       inkscape:spray-origin="#path3813"
       xlink:href="#path3813"
       transform="matrix(0.09341196,0.01196626,-0.01196626,0.09341196,-3958.1022,-408.32089)" /><use
       id="use7484"
       inkscape:spray-origin="#path3813"
       xlink:href="#path3813"
       transform="matrix(0.40962111,0.21392875,-0.21392875,0.40962111,-3690.5299,-579.60542)" /><use
       id="use7486"
       inkscape:spray-origin="#path3813"
       xlink:href="#path3813"
       transform="matrix(1.1737332,-0.06186026,0.06186026,1.1737332,-3890.5988,-632.12671)" /><use
       id="use7488"
       inkscape:spray-origin="#path3813"
       xlink:href="#path3813"
       transform="matrix(1.2273691,1.2529521,-1.2529521,1.2273691,-3322.4141,-839.23116)" /><use
       id="use7490"
       inkscape:spray-origin="#path3813"
       xlink:href="#path3813"
       transform="matrix(1.3404325,0.269641,-0.269641,1.3404325,-2193.2341,-80.128146)" /><use
       id="use7492"
       inkscape:spray-origin="#path3813"
       xlink:href="#path3813"
       transform="matrix(0.62589946,0.01544198,-0.01544198,0.62589946,-2563.7276,-308.35645)" /><use
       id="use7494"
       inkscape:spray-origin="#path3813"
       xlink:href="#path3813"
       transform="matrix(0.22687237,0.08245455,-0.08245455,0.22687237,-2240.5348,465.42655)" /><use
       id="use7496"
       inkscape:spray-origin="#path3813"
       xlink:href="#path3813"
       transform="matrix(1.383597,-0.91626238,0.91626238,1.383597,-3173.9282,280.81945)" /><use
       id="use7498"
       inkscape:spray-origin="#path3813"
       xlink:href="#path3813"
       transform="matrix(0.44860569,-1.8147377,1.8147377,0.44860569,-2733.9624,1189.9171)" /><use
       id="use7500"
       inkscape:spray-origin="#path3813"
       xlink:href="#path3813"
       transform="matrix(0.2269574,1.7357397,-1.7357397,0.2269574,-1388.1365,1084.0333)" /><use
       id="use7502"
       inkscape:spray-origin="#path3813"
       xlink:href="#path3813"
       transform="matrix(0.51923916,-1.843184,1.843184,0.51923916,-2316.8596,800.66486)" /><use
       id="use7504"
       inkscape:spray-origin="#path3813"
       xlink:href="#path3813"
       transform="matrix(0.45768902,-0.36314628,0.36314628,0.45768902,-1393.4325,1064.2671)" /><use
       id="use7506"
       inkscape:spray-origin="#path3813"
       xlink:href="#path3813"
       transform="matrix(1.5370378,0.64734582,-0.64734582,1.5370378,-2268.9856,462.94126)" /><use
       id="use7508"
       inkscape:spray-origin="#path3813"
       xlink:href="#path3813"
       transform="matrix(0.10242519,0.33799441,-0.33799441,0.10242519,-1875.2468,932.57463)" /><use
       id="use7510"
       inkscape:spray-origin="#path3813"
       xlink:href="#path3813"
       transform="matrix(0.53660662,-1.5701017,1.5701017,0.53660662,-1001.5231,1399.3831)" /><use
       id="use7512"
       inkscape:spray-origin="#path3813"
       xlink:href="#path3813"
       transform="matrix(0.89392751,1.0811773,-1.0811773,0.89392751,-1487.4089,1180.412)" /><use
       id="use7514"
       inkscape:spray-origin="#path3813"
       xlink:href="#path3813"
       transform="matrix(1.0729877,0.95304822,-0.95304822,1.0729877,-412.8353,847.81139)" /><use
       id="use7516"
       inkscape:spray-origin="#path3813"
       xlink:href="#path3813"
       transform="matrix(0.01900233,1.4767229,-1.4767229,0.01900233,-869.46252,1071.4286)" /><use
       id="use7518"
       inkscape:spray-origin="#path3813"
       xlink:href="#path3813"
       transform="matrix(0.50181601,0.31469545,-0.31469545,0.50181601,-1221.6766,602.63156)" /><use
       id="use7520"
       inkscape:spray-origin="#path3813"
       xlink:href="#path3813"
       transform="matrix(0.50220865,-1.0531841,1.0531841,0.50220865,-967.04546,12.331605)" /><use
       id="use7522"
       inkscape:spray-origin="#path3813"
       xlink:href="#path3813"
       transform="matrix(0.6513796,-0.29396333,0.29396333,0.6513796,-772.20843,218.24553)" /><use
       id="use7524"
       inkscape:spray-origin="#path3813"
       xlink:href="#path3813"
       transform="matrix(0.14661437,-0.24085842,0.24085842,0.14661437,-94.619196,469.28631)" /><use
       id="use7526"
       inkscape:spray-origin="#path3813"
       xlink:href="#path3813"
       transform="matrix(0.59237087,1.0706591,-1.0706591,0.59237087,160.42865,1427.9248)" /><use
       id="use7528"
       inkscape:spray-origin="#path3813"
       xlink:href="#path3813"
       transform="matrix(0.14176111,1.6458574,-1.6458574,0.14176111,1493.1128,41.622417)" /><use
       id="use7530"
       inkscape:spray-origin="#path3813"
       xlink:href="#path3813"
       transform="matrix(0.66831431,0.32682809,-0.32682809,0.66831431,389.73619,1001.8162)" /><use
       id="use7532"
       inkscape:spray-origin="#path3813"
       xlink:href="#path3813"
       transform="matrix(0.2608772,0.69385745,-0.69385745,0.2608772,698.54345,47.759291)" /><use
       id="use7534"
       inkscape:spray-origin="#path3813"
       xlink:href="#path3813"
       transform="matrix(0.86643058,-1.285551,1.285551,0.86643058,820.506,659.90485)" /><use
       id="use7536"
       inkscape:spray-origin="#path3813"
       xlink:href="#path3813"
       transform="matrix(1.264072,-1.2683155,1.2683155,1.264072,377.62465,1299.0104)" /><use
       id="use7538"
       inkscape:spray-origin="#path3813"
       xlink:href="#path3813"
       transform="matrix(0.2681767,-1.703885,1.703885,0.2681767,1132.8582,319.40187)" /><use
       id="use7540"
       inkscape:spray-origin="#path3813"
       xlink:href="#path3813"
       transform="matrix(1.2133213,-1.3228682,1.3228682,1.2133213,524.05687,294.50896)" /><use
       id="use7542"
       inkscape:spray-origin="#path3813"
       xlink:href="#path3813"
       transform="matrix(0.60121641,-1.5743597,1.5743597,0.60121641,526.42444,-373.45406)" /><use
       id="use7544"
       inkscape:spray-origin="#path3813"
       xlink:href="#path3813"
       transform="matrix(1.1237748,-0.51926171,0.51926171,1.1237748,1104.8876,-803.08422)" /><use
       id="use7546"
       inkscape:spray-origin="#path3813"
       xlink:href="#path3813"
       transform="matrix(0.00182356,-0.05677153,0.05677153,0.00182356,661.89775,514.83145)" /><use
       id="use7548"
       inkscape:spray-origin="#path3813"
       xlink:href="#path3813"
       transform="matrix(1.1457519,0.61678058,-0.61678058,1.1457519,673.39747,-52.782524)" /><use
       id="use7550"
       inkscape:spray-origin="#path3813"
       xlink:href="#path3813"
       transform="matrix(0.09684131,0.2902603,-0.2902603,0.09684131,1032.4401,17.494496)" /><use
       id="use7552"
       inkscape:spray-origin="#path3813"
       xlink:href="#path3813"
       transform="matrix(0.69239039,-0.07287528,0.07287528,0.69239039,1690.5757,-518.37275)" /><use
       id="use7554"
       inkscape:spray-origin="#path3813"
       xlink:href="#path3813"
       transform="matrix(1.4304833,-0.03709985,0.03709985,1.4304833,512.86381,-1449.1564)" /><use
       id="use7556"
       inkscape:spray-origin="#path3813"
       xlink:href="#path3813"
       transform="matrix(0.09453207,-1.5131109,1.5131109,0.09453207,-445.2132,-373.95914)" /><use
       id="use7558"
       inkscape:spray-origin="#path3813"
       xlink:href="#path3813"
       transform="matrix(0.9858014,1.4528457,-1.4528457,0.9858014,-29.65639,49.858904)" /><use
       id="use7560"
       inkscape:spray-origin="#path3813"
       xlink:href="#path3813"
       transform="matrix(1.2895992,-0.26496438,0.26496438,1.2895992,17.794364,-108.99264)" /><use
       id="use7562"
       inkscape:spray-origin="#path3813"
       xlink:href="#path3813"
       transform="matrix(0.90907095,0.40278969,-0.40278969,0.90907095,561.08578,228.54764)" /><use
       id="use7564"
       inkscape:spray-origin="#path3813"
       xlink:href="#path3813"
       transform="matrix(1.4181859,0.47514518,-0.47514518,1.4181859,0.84488444,-53.753611)" /><use
       id="use7566"
       inkscape:spray-origin="#path3813"
       xlink:href="#path3813"
       transform="matrix(0.48578909,1.540227,-1.540227,0.48578909,287.09765,-964.5431)" /><use
       id="use7568"
       inkscape:spray-origin="#path3813"
       xlink:href="#path3813"
       transform="matrix(0.38459425,1.6125642,-1.6125642,0.38459425,620.0289,-496.82477)" /><use
       id="use7570"
       inkscape:spray-origin="#path3813"
       xlink:href="#path3813"
       transform="matrix(0.34941033,0.51850165,-0.51850165,0.34941033,-910.11085,-890.84951)" /><use
       id="use7572"
       inkscape:spray-origin="#path3813"
       xlink:href="#path3813"
       transform="matrix(0.44060005,0.41687272,-0.41687272,0.44060005,-8.2561322,123.10523)" /><use
       id="use7574"
       inkscape:spray-origin="#path3813"
       xlink:href="#path3813"
       transform="matrix(0.02945086,-0.04370943,0.04370943,0.02945086,-794.62376,-205.89996)" /><use
       id="use7576"
       inkscape:spray-origin="#path3813"
       xlink:href="#path3813"
       transform="matrix(0.76102818,1.144558,-1.144558,0.76102818,-284.55807,-186.59703)" /><use
       id="use7578"
       inkscape:spray-origin="#path3813"
       xlink:href="#path3813"
       transform="matrix(0.70425237,1.6383904,-1.6383904,0.70425237,-844.65468,-693.30353)" /><use
       id="use7580"
       inkscape:spray-origin="#path3813"
       xlink:href="#path3813"
       transform="matrix(0.32467284,0.1858928,-0.1858928,0.32467284,-476.82227,514.75894)" /><use
       id="use7582"
       inkscape:spray-origin="#path3813"
       xlink:href="#path3813"
       transform="matrix(0.79868962,-0.35388896,0.35388896,0.79868962,-661.07553,409.5106)" /><use
       id="use7584"
       inkscape:spray-origin="#path3813"
       xlink:href="#path3813"
       transform="matrix(0.47703797,-1.9379819,1.9379819,0.47703797,-1282.7569,-765.08322)" /><use
       id="use7586"
       inkscape:spray-origin="#path3813"
       xlink:href="#path3813"
       transform="matrix(1.1611745,-0.45073477,0.45073477,1.1611745,-1642.3715,-175.99897)" /><use
       id="use7588"
       inkscape:spray-origin="#path3813"
       xlink:href="#path3813"
       transform="matrix(0.0591399,0.24261911,-0.24261911,0.0591399,-1398.103,-99.11435)" /><use
       id="use7590"
       inkscape:spray-origin="#path3813"
       xlink:href="#path3813"
       transform="matrix(1.2561515,0.58546683,-0.58546683,1.2561515,-582.734,-783.66167)" /><use
       id="use7592"
       inkscape:spray-origin="#path3813"
       xlink:href="#path3813"
       transform="matrix(0.47344958,0.10407473,-0.10407473,0.47344958,-1287.6538,-1193.1288)" /><use
       id="use7594"
       inkscape:spray-origin="#path3813"
       xlink:href="#path3813"
       transform="matrix(0.9270307,0.54089185,-0.54089185,0.9270307,-1709.2564,-1176.261)" /><use
       id="use7596"
       inkscape:spray-origin="#path3813"
       xlink:href="#path3813"
       transform="matrix(0.33972679,0.50470152,-0.50470152,0.33972679,-2716.0916,224.55863)" /><use
       id="use7598"
       inkscape:spray-origin="#path3813"
       xlink:href="#path3813"
       transform="matrix(0.34487917,1.3110021,-1.3110021,0.34487917,-2621.6968,-696.95004)" /><use
       id="use7600"
       inkscape:spray-origin="#path3813"
       xlink:href="#path3813"
       transform="matrix(0.1372747,0.134064,-0.134064,0.1372747,-1659.4397,130.59693)" /><use
       id="use7602"
       inkscape:spray-origin="#path3813"
       xlink:href="#path3813"
       transform="matrix(1.62195,0.87063481,-0.87063481,1.62195,-2885.0695,-1482.4631)" /><use
       id="use7604"
       inkscape:spray-origin="#path3813"
       xlink:href="#path3813"
       transform="matrix(0.40473012,0.47859211,-0.47859211,0.40473012,-1897.7758,-1008.7517)" /><use
       id="use7606"
       inkscape:spray-origin="#path3813"
       xlink:href="#path3813"
       transform="matrix(0.55584797,-0.81705057,0.81705057,0.55584797,-3029.2272,-595.22431)" /><use
       id="use7608"
       inkscape:spray-origin="#path3813"
       xlink:href="#path3813"
       transform="matrix(1.0732338,-1.0687518,1.0687518,1.0732338,-2360.3627,-673.18202)" /><use
       id="use7610"
       inkscape:spray-origin="#path3813"
       xlink:href="#path3813"
       transform="matrix(0.47810616,-0.60175215,0.60175215,0.47810616,-3271.9979,-437.50549)" /><use
       id="use7612"
       inkscape:spray-origin="#path3813"
       xlink:href="#path3813"
       transform="matrix(1.3550646,-0.69970412,0.69970412,1.3550646,-3619.678,-546.96859)" /><use
       id="use7614"
       inkscape:spray-origin="#path3813"
       xlink:href="#path3813"
       transform="matrix(0.63801057,0.77032653,-0.77032653,0.63801057,-2635.3102,-1006.9546)" /></g></svg>
